<svg xmlns="http://www.w3.org/2000/svg" width="84" height="36" viewBox="0 0 84 36">
    <g fill="none" fill-rule="evenodd">
        <g fill="#0B2B4A">
            <g>
                <g>
                    <path d="M66.284 0c2.808 0 4.871 2.095 4.871 5.438 0 4.993-4.053 14.158-9.144 20.354.307 3.789 1.36 5.527 3.072 5.527 1.755 0 3.905-2.719 5.792-8.024.165-.456.376-.825.616-1.112.383-1.224.456-1.417 1.065-3.457l.467-1.355c-.467-2.834 1.923-4.33 3.762-4.33 1.582 0 3.036 1.194 3.036 3 0 1.7-1.43 2.439-1.197 3.178.568 1.799 5.303 4.273 5.303 9.963 0 4.38-2.951 6.728-6.116 6.728-2.524 0-5.218-1.355-5.218-3.342 0-1.354.727-2.122 1.84-2.122 1.24 0 1.71.722 3.036.722.812 0 1.326-.632 1.326-1.625 0-2.393-1.668-4.158-3.208-6.325l-.556 1.403c-.117.387-.285.7-.487.944C72.07 32.778 68.814 36 64.776 36c-3.73 0-6.1-2.006-7.154-6.152-2.37 4.324-5.221 6.152-8.03 6.152-3.294 0-5.605-1.876-6.756-5.723-2.125 4.3-4.479 5.723-6.783 5.723-2.697 0-4.534-1.382-5.428-3.925-1.796 2.741-3.711 3.706-5.66 3.706-3.16 0-5.207-1.968-5.207-5.991 0-2.58.757-6.69.757-7.828 0-.787-.357-1.137-1.024-1.137-2.136 0-4.138 3.717-4.361 8.878v.656c0 .437.178 3.104.178 3.06 0 1.4-.935 2.318-2.403 2.318-2.091 0-3.115-1.093-3.115-5.203 0-2.93 1.202-6.56 1.202-7.741 0-.613-.267-.875-.802-.875-2.224 0-4.672 4.286-4.85 9.84v1.53C5.34 34.95 4.36 36 2.759 36 1.024 36 0 34.994 0 33.289c0-6.56.222-11.59.667-14.913.223-1.4 1.247-2.274 2.804-2.274 1.647 0 2.536.875 2.536 2.536 0 .175-.089.919-.222 2.274 1.424-2.317 3.115-3.498 5.34-3.498 1.824 0 3.337 1.05 4.05 2.58 1.468-2.493 3.337-3.674 5.696-3.674 3.07 0 5.028 1.925 5.028 4.767 0 1.88-.8 6.866-.8 9.096 0 .7.355 1.006.845 1.006.963 0 2.762-2.297 4.18-5.84.18-2.149.52-4.668.797-6.376.263-1.568 1.404-2.657 2.763-2.657 1.623 0 2.632 1.394 2.456 3.266-.087.915-.877 6.358-.877 8.492 0 2.744.614 3.353 1.491 3.353 1.185 0 3.64-3.048 5.088-7.533.046-.142.099-.273.158-.392v-.117C42 9.699 44.81 2.433 50.645 2.433c2.809 0 4.871 2.095 4.871 5.438 0 4.993-3.335 11.725-8.425 17.965.263 4.057 1.36 5.483 3.247 5.483 2.194 0 5.09-3.521 6.583-7.98C56.92 9.7 60.448 0 66.284 0zm-.579 4.592c-1.492 0-3.727 8.32-4.122 15.052 2.829-3.709 4.791-10.075 5.184-12.651.22-1.443-.274-2.401-1.062-2.401zm-15.28 2.433c-1.491 0-2.852 5.839-3.247 12.57 2.37-4.502 3.95-9.584 3.95-11.411 0-.847-.307-1.16-.702-1.16zM34.386 9c1.712 0 3.071 1.35 3.071 3.048 0 1.699-1.36 3.049-3.07 3.049-1.71 0-3.07-1.35-3.07-3.049 0-1.698 1.36-3.048 3.07-3.048z" transform="translate(-679 -55) translate(0 38) translate(679 17)"/>
                </g>
            </g>
        </g>
    </g>
</svg>
